<?xml version="1.0" standalone="no"?>
<!DOCTYPE svg PUBLIC "-//W3C//DTD SVG 20010904//EN"
 "http://www.w3.org/TR/2001/REC-SVG-20010904/DTD/svg10.dtd">
<svg version="1.0" xmlns="http://www.w3.org/2000/svg"
 width="700.000000pt" height="700.000000pt" viewBox="0 0 700.000000 700.000000"
 preserveAspectRatio="xMidYMid meet">
<metadata>
Created by potrace 1.14, written by Peter Selinger 2001-2017
</metadata>
<g transform="translate(0.000000,700.000000) scale(0.100000,-0.100000)"
fill="#000000" stroke="none">
<path d="M1933 6979 c-318 -73 -597 -248 -793 -498 -78 -98 -68 -83 -136 -203
-64 -113 -131 -309 -148 -438 -4 -25 -9 -63 -12 -85 -3 -22 -6 -130 -6 -241
l-1 -200 -146 0 c-80 1 -172 -2 -204 -6 -110 -15 -204 -83 -254 -186 -22 -46
-27 -69 -27 -137 0 -68 4 -89 27 -136 44 -91 134 -165 222 -184 17 -4 109 -8
205 -8 l175 -2 1 -411 1 -412 -196 -4 c-178 -4 -200 -6 -242 -27 -75 -36 -125
-86 -161 -159 -29 -58 -33 -76 -33 -142 1 -128 62 -229 172 -288 74 -39 83
-40 289 -41 l171 -1 1 -413 0 -412 -162 0 c-224 1 -294 -17 -374 -97 -23 -23
-54 -66 -69 -97 -24 -48 -28 -68 -27 -137 1 -68 5 -92 28 -138 46 -94 135
-164 231 -182 22 -4 114 -8 205 -8 l165 -1 2 -185 c2 -294 15 -384 79 -576 50
-148 159 -341 249 -440 68 -75 111 -118 161 -159 32 -28 61 -52 64 -55 18 -18
138 -92 205 -127 89 -46 166 -76 270 -104 39 -11 81 -23 95 -27 14 -3 1055 -8
2313 -9 2216 -3 2290 -3 2331 15 52 24 111 74 142 123 57 90 53 -139 53 3359
0 3530 4 3273 -59 3364 -37 54 -65 79 -124 110 l-49 26 -2276 -1 c-2192 -1
-2279 -2 -2358 -20z m4202 -3479 l0 -2853 -1990 0 c-2245 0 -2067 -7 -2240 79
-141 69 -243 167 -319 305 -45 83 -73 167 -82 250 -4 35 -8 1045 -8 2244 0
2445 -6 2250 73 2411 79 162 197 277 355 349 90 41 150 56 256 64 47 3 956 6
2020 5 l1935 0 0 -2854z"/>
<path d="M3717 5204 c-1 -1 -22 -5 -47 -9 -195 -28 -388 -126 -534 -271 -252
-251 -343 -620 -240 -964 92 -302 334 -545 638 -639 38 -12 78 -21 90 -22 20
0 20 -1 1 -8 -11 -5 -40 -11 -65 -15 -167 -23 -405 -119 -570 -229 -390 -260
-642 -701 -664 -1164 l-5 -91 1482 -1 c815 0 1489 2 1498 5 11 3 15 15 13 47
-10 139 -24 241 -44 318 -7 24 -13 51 -15 59 -2 8 -15 49 -30 90 -146 399
-461 725 -855 883 -106 42 -284 88 -347 90 -32 1 -7 15 58 31 254 67 492 268
609 518 66 141 92 263 91 424 -1 210 -75 419 -210 586 -149 186 -375 320 -596
354 -47 7 -252 13 -258 8z"/>
</g>
</svg>
